<svg width="100%" height="100%" viewBox="0 0 242 48" fill="none" xmlns="http://www.w3.org/2000/svg">
    <g clip-path="url(#a)">
        <mask id="b" style="mask-type:luminance" maskUnits="userSpaceOnUse" x="2" y="10" width="204" height="27">
            <path d="M205.712 10.1143H2.39795v26.4H205.712v-26.4Z" fill="#fff"></path>
        </mask>
        <g mask="url(#b)">

        </g>
        <path fill-rule="evenodd" clip-rule="evenodd" d="M8.88117 35.9209H2.39795V10.7077h6.48322v9.0841H16.7722v-9.0841h6.4833v25.2132h-6.4833V25.7614H8.88117V35.9209ZM141.753 28.7707c.162-.7951.242-1.6046.238-2.4162V10.7077h-6.483V26.058c.003.4316-.041.8623-.129 1.2843-.145.7207-.478 1.3903-.964 1.9416-.728.8157-1.673 1.2237-2.834 1.2237s-2.112-.408-2.853-1.2237c-.468-.5204-.797-1.1513-.955-1.8339-.107-.456-.159-.9233-.156-1.392V10.7077h-6.483v15.7212c0 1.5573.259 2.9538.778 4.1898.519 1.236 1.241 2.2926 2.167 3.17.926.8777 2.019 1.5511 3.279 2.0208.499.1855 1.011.3336 1.532.443.861.1776 1.738.2654 2.617.2616 1.482 0 2.859-.2349 4.131-.7046 1.272-.4697 2.383-1.1492 3.334-2.0393.951-.8897 1.692-1.9587 2.223-3.2071.244-.5777.431-1.178.558-1.7924Zm48.844 7.1502V10.7077h15.115v5.7842h-8.632v3.6707h7.891v5.5988h-7.891V30.1366h8.632v5.7843h-15.115Zm-99.9363-5.6362c.1413-.6452.2105-1.3042.2057-1.9649 0-1.4338-.2595-2.6139-.7779-3.541-.5188-.9269-1.1918-1.6808-2.0191-2.2617-.8273-.5809-1.6982-1.0506-2.6119-1.409-.335-.1316-.6717-.2592-1.0101-.3826-.5297-.1936-1.0638-.3751-1.6018-.5443-.1903-.0597-.3795-.1236-.5671-.1917-.2907-.1058-.5585-.2163-.8033-.3315-.2225-.1035-.4392-.2198-.6487-.3482-.1306-.0796-.252-.1731-.3627-.2788-.131-.1198-.2359-.2658-.3072-.4285-.0717-.1626-.1084-.3385-.108-.5162-.0055-.2889.0833-.5716.253-.8054.2133-.2919.5609-.524 1.0437-.6963.7165-.2563 1.6323-.3511 2.7476-.2844.2393.0145.478.0352.7163.0619.1553.0173.3106.0376.4652.0608 1.3183.1988 2.7501.6296 4.2953 1.2926V11.338c-.5417-.1552-1.0882-.292-1.6388-.41-1.4397-.3137-2.9081-.4745-4.3814-.4798-.7553-.0022-1.5103.0469-2.2591.1468-1.0018.1308-1.9844.3803-2.9273.743-.3247.1263-.6425.2699-.9518.4301-1.0392.5275-1.9477 1.2799-2.6605 2.2025-.4944.6475-.8579 1.3856-1.0691 2.1728-.181.6821-.2701 1.3854-.2647 2.0912 0 .1357.0028.2715.0083.4071.0473 1.1796.3037 2.1747.77 2.9855.5184.9023 1.1915 1.6314 2.0188 2.1876.8276.5562 1.6981 1.0135 2.6119 1.3719.3353.1316.672.26 1.01.3848.5304.1968 1.0646.3836 1.6018.5609.1872.061.3734.1265.5575.1964.2945.1118.5654.228.8129.3491.2232.1083.4396.2293.6487.3627.108.0689.2099.1467.3041.2331.1495.13.2695.2908.3511.4715.082.1803.1238.3764.1228.5746 0 .7416-.4694 1.2669-1.4078 1.5758-.9384.3089-2.1981.3771-3.7786.204-.1691-.0185-.3377-.0398-.5061-.0635-.7392-.1042-1.5144-.2626-2.3256-.4748-.8204-.2174-1.631-.4708-2.4291-.7594v6.3774c2.0993.5685 4.1616.8836 6.1868.9453 2.0253.0621 3.8592-.1666 5.5015-.6857.3748-.118.742-.2578 1.0999-.419 1.0924-.4807 2.0596-1.2065 2.8272-2.1209.6216-.7584 1.0529-1.655 1.2576-2.6143Zm55.7763 5.6362V10.7077h8.928c.834-.0044 1.667.0733 2.485.2321.848.1643 1.669.4417 2.443.8246.971.4756 1.838 1.142 2.547 1.9596.27.3154.515.652.731 1.0067.568.9408.935 1.9898 1.075 3.08.063.46.093.9237.092 1.3879.005.7368-.079 1.4714-.251 2.188-.143.5921-.357 1.1646-.638 1.7052-.593 1.1371-1.395 2.064-2.408 2.781.988 1.656 1.982 3.3305 2.982 5.0239 1 1.6934 1.995 3.3679 2.983 5.0242h-7.262c-.765-1.3844-1.537-2.7932-2.315-4.227-.778-1.4335-1.562-2.8427-2.353-4.2268h-2.556V35.9209h-6.483Zm21.502-15.7805c-.212 1.0445-.316 2.108-.311 3.1739 0 1.9033.302 3.6399.908 5.2095.605 1.5696 1.463 2.9352 2.574 4.0971 1.112 1.1616 2.445 2.064 4.001 2.7066.642.2643 1.304.4769 1.98.6363 1.046.2438 2.114.3785 3.188.4018.136.0038.272.0055.407.0055.831 0 1.686-.0658 2.565-.1971 1.044-.1591 2.075-.3923 3.086-.6981v-6.266c-.401.1906-.81.362-1.227.5132-.999.3686-2.046.5949-3.108.673-.467.0323-.92.033-1.358.0021-.872-.0559-1.727-.2568-2.532-.5952-1.161-.4944-2.087-1.2792-2.778-2.3544-.433-.6723-.73-1.4626-.892-2.3716-.1-.5821-.149-1.172-.146-1.7627 0-.1639.004-.3276.011-.4913.062-1.4602.404-2.6744 1.027-3.643.691-1.0752 1.617-1.86 2.778-2.3544.336-.1427.682-.2606 1.034-.3526.883-.2311 1.835-.3114 2.856-.2407.59.0415 1.176.1309 1.752.2674.891.214 1.757.5221 2.583.9192v-6.2663c-.782-.2354-1.575-.429-2.377-.5799-1.13-.2103-2.222-.3155-3.274-.3155-.135.0001-.271.0019-.407.0056-.519.013-1.038.0503-1.554.1119-1.241.1428-2.457.4544-3.614.9263-1.556.6426-2.889 1.5449-4.001 2.7067-1.111 1.1617-1.969 2.5274-2.574 4.0971-.254.6611-.454 1.3419-.597 2.0356ZM59.0057 35.9209V16.6031h-5.7051v-5.8954h17.8567v5.8954h-5.6681v19.3178H59.0057Zm-23.3105.107c1.1719.3292 2.3842.493 3.6017.4862.2921 0 .5843-.0089.8757-.0268 1.4143-.0771 2.8039-.4004 4.1071-.9558 1.5188-.6549 2.8402-1.5758 3.9641-2.7624.1491-.1574.2938-.3189.434-.4842.9333-1.1077 1.6698-2.3674 2.1779-3.7241.6171-1.6189.926-3.3803.926-5.2836.0004-.417-.0151-.8338-.0459-1.2495-.095-1.3745-.3916-2.7275-.8801-4.0156-.0196-.0502-.0388-.1002-.0587-.1502-.5818-1.4937-1.4492-2.8595-2.5532-4.0211-1.1239-1.1741-2.4453-2.0887-3.9641-2.7438-.5006-.2157-1.0156-.3958-1.5412-.5391-1.1225-.3008-2.28-.4499-3.4416-.4434-.2509-.0002-.5019.0063-.7525.0192-1.462.0668-2.9006.393-4.2491.9633-1.5312.6551-2.8525 1.5697-3.9637 2.7438-.191.2016-.3751.4099-.5514.6244-.8677 1.0642-1.5572 2.262-2.042 3.5469-.2188.5701-.3981 1.1546-.5369 1.7493-.2644 1.1531-.395 2.3328-.3892 3.5158 0 1.9033.3086 3.6647.9261 5.2836.0384.1008.0782.2013.119.3014.577 1.4441 1.4156 2.7686 2.4744 3.9069 1.1112 1.1866 2.4325 2.1075 3.9637 2.7624.4557.1947.9233.3606 1.3999.4964Zm66.1658 0c1.172.3292 2.384.493 3.602.4862.292 0 .584-.0089.876-.0268 1.414-.0771 2.804-.4004 4.107-.9558 1.519-.6549 2.84-1.5758 3.964-2.7624.149-.1574.294-.3189.434-.4842.933-1.1077 1.67-2.3674 2.178-3.7241.617-1.6189.926-3.3803.926-5.2836 0-.417-.015-.8338-.046-1.2495-.095-1.3745-.392-2.7275-.88-4.0156-.02-.0502-.039-.1002-.059-.1502-.582-1.4937-1.449-2.8595-2.553-4.0211-1.124-1.1741-2.445-2.0887-3.964-2.7438-.501-.2157-1.016-.3958-1.542-.5391-1.122-.3008-2.279-.4499-3.441-.4434-.251-.0002-.502.0063-.753.0192-1.462.0668-2.9.393-4.248.9633-1.5316.6551-2.853 1.5697-3.9645 2.7438-.191.2016-.3747.4099-.5513.6244-.8674 1.0642-1.5573 2.262-2.0421 3.5469-.2187.5701-.398 1.1546-.5365 1.7493-.2647 1.1531-.3954 2.3328-.3895 3.5158 0 1.9033.3085 3.6647.926 5.2836.0388.1008.0782.2013.119.3014.577 1.4441 1.416 2.7686 2.4744 3.9069 1.1115 1.1866 2.4329 2.1075 3.9645 2.7624.455.1947.923.3606 1.399.4964Zm-62.5641-5.5203c1.21 0 2.2475-.3031 3.1118-.9086.6751-.4779 1.2377-1.0971 1.6491-1.8151.1368-.2342.2606-.4762.37-.7248.2911-.6672.4923-1.37.5986-2.09.0847-.56.1258-1.1256.1238-1.6919.0031-.6148-.0467-1.2287-.1481-1.835-.1094-.6585-.3024-1.3004-.5743-1.9099-.2537-.5709-.5887-1.102-.9943-1.5769-.3021-.3498-.6463-.6608-1.0248-.9259-.6579-.456-1.416-.747-2.2101-.8483-.2989-.0409-.6003-.0609-.9017-.0601-1.1856 0-2.2169.2966-3.0936.8899-.7172.4901-1.3104 1.1407-1.7324 1.9003-.1115.1958-.2133.3968-.3052.6025-.4813 1.0752-.7224 2.3297-.7224 3.7634-.0027.6373.0501 1.2737.1588 1.9017.1114.6473.3007 1.2785.5636 1.8802.2393.5506.5537 1.0653.9347 1.5292.3198.3857.6908.7258 1.1029 1.0107.7259.4968 1.5672.7985 2.4429.876.2163.0219.4334.0326.6507.0326Zm66.1661 0c1.21 0 2.247-.3031 3.112-.9086.675-.4779 1.237-1.0971 1.649-1.8151.137-.2342.26-.4762.37-.7248.291-.6672.492-1.37.599-2.09.084-.56.126-1.1256.123-1.6919.003-.6148-.046-1.2287-.148-1.835-.109-.6585-.302-1.3004-.574-1.9099-.254-.5709-.589-1.102-.995-1.5769-.302-.3498-.646-.6608-1.024-.9259-.658-.456-1.416-.747-2.21-.8483-.299-.0409-.6-.0609-.902-.0601-1.186 0-2.217.2966-3.093.8899-.718.4901-1.311 1.1407-1.733 1.9003-.112.1958-.213.3968-.305.6025-.4817 1.0752-.7224 2.3297-.7224 3.7634-.0031.6373.0501 1.2737.1584 1.9017.1114.6473.301 1.2785.564 1.8802.239.5506.554 1.0653.935 1.5292.319.3857.691.7258 1.103 1.0107.725.4968 1.566.7985 2.442.876.216.0219.433.0326.651.0326Zm49.902-13.9416H152.92v5.4876h2.816c.315.0036.628-.052.923-.1639.344-.1359.65-.3532.892-.6333.429-.4852.676-1.1045.699-1.7519.003-.0648.005-.1297.005-.1947.003-.3341-.049-.6664-.153-.9836-.126-.3688-.333-.7043-.606-.9815-.331-.3341-.749-.5677-1.206-.6737-.264-.0658-.551-.1006-.862-.1046-.021-.0003-.042-.0004-.063-.0004Z" fill="#FF292E" stroke="#FF292E" stroke-width=".32396" stroke-linecap="round"></path><mask id="c" style="mask-type:luminance" maskUnits="userSpaceOnUse" x="217" y="1" width="25" height="45">
        <path d="M241.713 1.37158h-24.686V45.2573h24.686V1.37158Z" fill="#fff"></path>
    </mask>
        <g mask="url(#c)" fill="#FF292E">
            <path d="M241.431 3.65492c-.034-.29485-.658-2.783997-5.966-2.19428-.144 0-3.662.29485-6.631 3.696l-1.357-.18515c-.515-.07542-2.414-.21943-3.696 2.48915 0 .03428-.11.21943-.186.43885-.075.03429-.185.03429-.253.07543-2.565 1.02857-3.587 3.99088-4.101 5.56798-.034.144-.11.3292-.185.5143-.11.4046-2.194 7.5429-1.721 14.3932.144.8777-.034.624.144.8777.185.2948.514.4388.878.4388h4.32l-5.157 14.0983c-.185.4731 0 .9874.439 1.248.185.1097.363.144.514.144.295 0 .583-.1097.802-.3634l19.557-22.4503c.254-.2949.329-.7337.144-1.1383-.185-.3634-.549-.624-.953-.624h-5.527c-.583 0-1.063.4731-1.063 1.0629 0 .5897.473 1.0628 1.063 1.0628h3.223l-14.318 16.4434 3.737-10.2171c.11-.3291.076-.6926-.109-.9531-.186-.2949-.515-.4389-.844-.4389h-4.759c-.295-6.3017 1.646-12.9257 1.687-12.96.034-.144.11-.2948.144-.4731.473-1.3577 1.207-3.6275 2.894-4.28575.363-.144.734-.21943 1.172-.21943.878 0 1.907.29486 3.079.91888 2.051 1.0971 3.223 2.2354 3.477 3.3325.329 1.3578-.734 2.8938-1.756 4.3543-.294.4046-.548.8023-.802 1.2069-.11.144-1.502 2.016-2.379 5.856-.144.5829.253 1.1726.843 1.2823.549.1097 1.063-.2537 1.207-.8023.802-3.4766 2.05-5.1634 2.085-5.1977.253-.3635.514-.768.768-1.1383 1.248-1.7554 2.64-3.7714 2.084-6.0411-.034-.144-.075-.2949-.144-.4046.768-1.0629 1.577-3.11316 0-4.83431l-.329-.36342c.734-.73372 2.565-2.05029 6.336-2.304.329 0 .768-.07543 1.138-.40458.254-.21942.549-.624.549-1.31657v-.10971l-.034-.07543-.014-.00686Zm-10.286 3.77143-.329.624 1.358 1.57714c.439.47311.439 1.02861.295 1.46741-.768-.8023-1.797-1.53598-3.114-2.26969-1.172-.58286-2.235-.95314-3.257-1.09714.405-.58286.803-.73372.988-.69258l2.64.36343.363-.47314c2.455-3.07886 5.417-3.36686 5.568-3.36686 1.358-.144 2.194-.07543 2.784.07543-5.568.69257-7.214 3.66172-7.289 3.80572l-.007-.01372Z"></path>
            <path d="M223.561 11.9728c-.075.1097-1.536 2.4137-2.379 7.5086-.11.5828.294 1.0971.843 1.2068h.185c.514 0 .953-.3634 1.029-.8777.768-4.5805 2.05-6.6651 2.084-6.6994.295-.4731.185-1.1383-.329-1.4263-.473-.3291-1.097-.1851-1.426.2949l-.007-.0069Z"></path>
        </g>
    </g>
    <defs>
        <clipPath id="a">
            <path fill="#fff" d="M0 0h241.714v48H0z"></path>
        </clipPath>
    </defs>
</svg>